<svg xmlns="http://www.w3.org/2000/svg" viewBox="0 0 1440 320">
    <g transform="scale(1,-1) translate(0,-320)">
        <path fill="#0099ff" fill-opacity="1"
            d="M0,96L6.5,128C13,160,26,224,39,256C51.9,288,65,288,78,293.3C90.8,299,104,309,117,282.7C129.7,256,143,192,156,170.7C168.6,149,182,171,195,160C207.6,149,221,107,234,74.7C246.5,43,259,21,272,26.7C285.4,32,298,64,311,74.7C324.3,85,337,75,350,74.7C363.2,75,376,85,389,101.3C402.2,117,415,139,428,154.7C441.1,171,454,181,467,160C480,139,493,85,506,101.3C518.9,117,532,203,545,208C557.8,213,571,139,584,96C596.8,53,610,43,623,64C635.7,85,649,139,662,149.3C674.6,160,688,128,701,112C713.5,96,726,96,739,101.3C752.4,107,765,117,778,128C791.4,139,804,149,817,170.7C830.3,192,843,224,856,240C869.2,256,882,256,895,250.7C908.1,245,921,235,934,224C947,213,960,203,973,176C985.9,149,999,107,1012,85.3C1024.9,64,1038,64,1051,96C1063.8,128,1077,192,1090,197.3C1102.7,203,1116,149,1129,138.7C1141.6,128,1155,160,1168,186.7C1180.5,213,1194,235,1206,250.7C1219.5,267,1232,277,1245,261.3C1258.4,245,1271,203,1284,202.7C1297.3,203,1310,245,1323,234.7C1336.2,224,1349,160,1362,133.3C1375.1,107,1388,117,1401,144C1414.1,171,1427,213,1434,234.7L1440,256L1440,0L1433.5,0C1427,0,1414,0,1401,0C1388.1,0,1375,0,1362,0C1349.2,0,1336,0,1323,0C1310.3,0,1297,0,1284,0C1271.4,0,1258,0,1245,0C1232.4,0,1219,0,1206,0C1193.5,0,1181,0,1168,0C1154.6,0,1142,0,1129,0C1115.7,0,1103,0,1090,0C1076.8,0,1064,0,1051,0C1037.8,0,1025,0,1012,0C998.9,0,986,0,973,0C960,0,947,0,934,0C921.1,0,908,0,895,0C882.2,0,869,0,856,0C843.2,0,830,0,817,0C804.3,0,791,0,778,0C765.4,0,752,0,739,0C726.5,0,714,0,701,0C687.6,0,675,0,662,0C648.6,0,636,0,623,0C609.7,0,597,0,584,0C570.8,0,558,0,545,0C531.9,0,519,0,506,0C493,0,480,0,467,0C454.1,0,441,0,428,0C415.1,0,402,0,389,0C376.2,0,363,0,350,0C337.3,0,324,0,311,0C298.4,0,285,0,272,0C259.5,0,246,0,234,0C220.5,0,208,0,195,0C181.6,0,169,0,156,0C142.7,0,130,0,117,0C103.8,0,91,0,78,0C64.9,0,52,0,39,0C25.9,0,13,0,6,0L0,0Z" />
    </g>
</svg>